<?xml version="1.0" encoding="UTF-8" standalone="no"?>
<!-- Generator: Adobe Illustrator 16.2.1, SVG Export Plug-In . SVG Version: 6.00 Build 0)  -->

<svg
   xmlns:dc="http://purl.org/dc/elements/1.1/"
   xmlns:cc="http://creativecommons.org/ns#"
   xmlns:rdf="http://www.w3.org/1999/02/22-rdf-syntax-ns#"
   xmlns:svg="http://www.w3.org/2000/svg"
   xmlns="http://www.w3.org/2000/svg"
   xmlns:sodipodi="http://sodipodi.sourceforge.net/DTD/sodipodi-0.dtd"
   xmlns:inkscape="http://www.inkscape.org/namespaces/inkscape"
   version="1.1"
   id="Layer_1"
   x="0px"
   y="0px"
   width="512px"
   height="512px"
   viewBox="0 0 512 512"
   style="enable-background:new 0 0 512 512;"
   xml:space="preserve"
   inkscape:version="0.91 r13725"
   sodipodi:docname="locked.svg"><metadata
     id="metadata9"><rdf:RDF><cc:Work
         rdf:about=""><dc:format>image/svg+xml</dc:format><dc:type
           rdf:resource="http://purl.org/dc/dcmitype/StillImage" /></cc:Work></rdf:RDF></metadata><defs
     id="defs7" /><sodipodi:namedview
     pagecolor="#ffffff"
     bordercolor="#666666"
     borderopacity="1"
     objecttolerance="10"
     gridtolerance="10"
     guidetolerance="10"
     inkscape:pageopacity="0"
     inkscape:pageshadow="2"
     inkscape:window-width="815"
     inkscape:window-height="480"
     id="namedview5"
     showgrid="false"
     inkscape:zoom="0.4609375"
     inkscape:cx="20.610169"
     inkscape:cy="256"
     inkscape:window-x="0"
     inkscape:window-y="20"
     inkscape:window-maximized="0"
     inkscape:current-layer="Layer_1" /><path
     d="M86.4,480h339.2c12.3,0,22.4-9.9,22.4-22.1V246c0-12.2-10-22-22.4-22H404v-30.9c0-41.5-16.2-87.6-42.6-115.4  C335.1,49.9,297.4,32,256.1,32c-0.1,0-0.1,0-0.1,0c0,0-0.1,0-0.1,0c-41.3,0-79,17.9-105.3,45.6c-26.4,27.8-42.6,73.9-42.6,115.4V224  H89h-2.6C74,224,64,233.9,64,246v211.9C64,470.1,74,480,86.4,480z M161,193.1c0-27.3,9.9-61.1,28.1-80.3l0,0l0-0.3  C206.7,93.9,231,83,255.9,83h0.1h0.1c24.9,0,49.2,10.9,66.8,29.5l0,0.2l-0.1,0.1c18.3,19.2,28.1,53,28.1,80.3V224h-17.5h-155H161  V193.1z"
     id="path3"
     style="fill:#ffffff" /></svg>